{
	"asset":{
		"generator":"Khronos glTF Blender I/O v3.5.30",
		"version":"2.0"
	},
	"scene":0,
	"scenes":[
		{
			"name":"Scene",
			"nodes":[
				0,
				1
			]
		}
	],
	"nodes":[
		{
			"mesh":0,
			"name":"banheiroPublico.001_metal.001_0",
			"rotation":[
				-0.5,
				-0.5,
				-0.5,
				0.5
			],
			"translation":[
				2.7573065757751465,
				0,
				4.35554838180542
			]
		},
		{
			"mesh":1,
			"name":"banheiroPublico.001_plastico_0",
			"rotation":[
				-0.5,
				-0.5,
				-0.5,
				0.5
			],
			"translation":[
				2.7573065757751465,
				0,
				4.35554838180542
			]
		}
	],
	"materials":[
		{
			"doubleSided":true,
			"name":"metal.001",
			"pbrMetallicRoughness":{
				"baseColorFactor":[
					0.3522529900074005,
					0.3522529900074005,
					0.3522529900074005,
					1
				],
				"metallicFactor":0,
				"roughnessFactor":0.9137160181999207
			}
		},
		{
			"doubleSided":true,
			"name":"plastico",
			"pbrMetallicRoughness":{
				"baseColorFactor":[
					0.03367830067873001,
					0.167945995926857,
					0.15455099940299988,
					1
				],
				"metallicFactor":0,
				"roughnessFactor":0.9660908579826355
			}
		}
	],
	"meshes":[
		{
			"name":"banheiroPublico.001_metal.001_0",
			"primitives":[
				{
					"attributes":{
						"POSITION":0,
						"TEXCOORD_0":1,
						"NORMAL":2
					},
					"indices":3,
					"material":0
				}
			]
		},
		{
			"name":"banheiroPublico.001_plastico_0",
			"primitives":[
				{
					"attributes":{
						"POSITION":4,
						"TEXCOORD_0":5,
						"NORMAL":6
					},
					"indices":7,
					"material":1
				}
			]
		}
	],
	"accessors":[
		{
			"bufferView":0,
			"componentType":5126,
			"count":120,
			"max":[
				0.9541692137718201,
				-0.9996040463447571,
				2.287137508392334
			],
			"min":[
				-0.9541692137718201,
				-1.2834352254867554,
				0
			],
			"type":"VEC3"
		},
		{
			"bufferView":1,
			"componentType":5126,
			"count":120,
			"type":"VEC2"
		},
		{
			"bufferView":2,
			"componentType":5126,
			"count":120,
			"type":"VEC3"
		},
		{
			"bufferView":3,
			"componentType":5123,
			"count":192,
			"type":"SCALAR"
		},
		{
			"bufferView":4,
			"componentType":5126,
			"count":72,
			"max":[
				0.9541692137718201,
				1.1475350856781006,
				2.2368147373199463
			],
			"min":[
				-0.9541692137718201,
				-1.2834352254867554,
				0
			],
			"type":"VEC3"
		},
		{
			"bufferView":5,
			"componentType":5126,
			"count":72,
			"type":"VEC2"
		},
		{
			"bufferView":6,
			"componentType":5126,
			"count":72,
			"type":"VEC3"
		},
		{
			"bufferView":7,
			"componentType":5123,
			"count":108,
			"type":"SCALAR"
		}
	],
	"bufferViews":[
		{
			"buffer":0,
			"byteLength":1440,
			"byteOffset":0,
			"target":34962
		},
		{
			"buffer":0,
			"byteLength":960,
			"byteOffset":1440,
			"target":34962
		},
		{
			"buffer":0,
			"byteLength":1440,
			"byteOffset":2400,
			"target":34962
		},
		{
			"buffer":0,
			"byteLength":384,
			"byteOffset":3840,
			"target":34963
		},
		{
			"buffer":0,
			"byteLength":864,
			"byteOffset":4224,
			"target":34962
		},
		{
			"buffer":0,
			"byteLength":576,
			"byteOffset":5088,
			"target":34962
		},
		{
			"buffer":0,
			"byteLength":864,
			"byteOffset":5664,
			"target":34962
		},
		{
			"buffer":0,
			"byteLength":216,
			"byteOffset":6528,
			"target":34963
		}
	],
	"buffers":[
		{
			"byteLength":6744,
			"uri":"data:application/octet-stream;base64,"
		}
	]
}
