{
	"asset":{
		"generator":"Khronos glTF Blender I/O v3.5.30",
		"version":"2.0"
	},
	"scene":0,
	"scenes":[
		{
			"name":"Scene",
			"nodes":[
				7
			]
		}
	],
	"nodes":[
		{
			"mesh":0,
			"name":"Toilet_Toilet_0",
			"scale":[
				0.10000000149011612,
				0.09999998658895493,
				0.10000000149011612
			]
		},
		{
			"children":[
				0
			],
			"name":"Toilet"
		},
		{
			"mesh":1,
			"name":"ToiletFlushHandle_Toilet_0",
			"scale":[
				0.10000000149011612,
				0.09999998658895493,
				0.10000000149011612
			],
			"translation":[
				1.3132320642471313,
				5.879194736480713,
				1.8438032865524292
			]
		},
		{
			"mesh":2,
			"name":"ToiletSeat_Toilet_0",
			"scale":[
				0.10000000149011612,
				0.09999998658895493,
				0.10000000149011612
			],
			"translation":[
				0,
				3.7393600940704346,
				2.2313921451568604
			]
		},
		{
			"children":[
				1,
				2,
				3
			],
			"name":"ToiletOrigin"
		},
		{
			"children":[
				4
			],
			"name":"RootNode"
		},
		{
			"children":[
				5
			],
			"name":"Toilet.fbx",
			"rotation":[
				0.70710688829422,
				0,
				0,
				0.7071066498756409
			]
		},
		{
			"children":[
				6
			],
			"name":"Sketchfab_model",
			"rotation":[
				-0.5085283517837524,
				-0.49132364988327026,
				-0.49132364988327026,
				0.5085283517837524
			],
			"scale":[
				0.4000000059604645,
				0.4000000059604645,
				0.3999999761581421
			]
		}
	],
	"materials":[
		{
			"name":"Toilet",
			"pbrMetallicRoughness":{}
		}
	],
	"meshes":[
		{
			"name":"Toilet_Toilet_0",
			"primitives":[
				{
					"attributes":{
						"POSITION":0,
						"TEXCOORD_0":1,
						"TEXCOORD_1":2,
						"NORMAL":3
					},
					"indices":4,
					"material":0
				}
			]
		},
		{
			"name":"ToiletFlushHandle_Toilet_0",
			"primitives":[
				{
					"attributes":{
						"POSITION":5,
						"TEXCOORD_0":6,
						"TEXCOORD_1":7,
						"NORMAL":8
					},
					"indices":9,
					"material":0
				}
			]
		},
		{
			"name":"ToiletSeat_Toilet_0",
			"primitives":[
				{
					"attributes":{
						"POSITION":10,
						"TEXCOORD_0":11,
						"TEXCOORD_1":12,
						"NORMAL":13
					},
					"indices":14,
					"material":0
				}
			]
		}
	],
	"accessors":[
		{
			"bufferView":0,
			"componentType":5126,
			"count":5336,
			"max":[
				21.129558563232422,
				67.01891326904297,
				60.456478118896484
			],
			"min":[
				-26.705318450927734,
				-4.470348358154297e-06,
				-0.239563450217247
			],
			"type":"VEC3"
		},
		{
			"bufferView":1,
			"componentType":5126,
			"count":5336,
			"type":"VEC2"
		},
		{
			"bufferView":2,
			"componentType":5126,
			"count":5336,
			"type":"VEC2"
		},
		{
			"bufferView":3,
			"componentType":5126,
			"count":5336,
			"type":"VEC3"
		},
		{
			"bufferView":4,
			"componentType":5123,
			"count":24654,
			"type":"SCALAR"
		},
		{
			"bufferView":5,
			"componentType":5126,
			"count":156,
			"max":[
				1.5507184267044067,
				1.7342329025268555,
				1.7120301723480225
			],
			"min":[
				-7.115070343017578,
				-1.7300844192504883,
				-0.2918362617492676
			],
			"type":"VEC3"
		},
		{
			"bufferView":6,
			"componentType":5126,
			"count":156,
			"type":"VEC2"
		},
		{
			"bufferView":7,
			"componentType":5126,
			"count":156,
			"type":"VEC2"
		},
		{
			"bufferView":8,
			"componentType":5126,
			"count":156,
			"type":"VEC3"
		},
		{
			"bufferView":9,
			"componentType":5123,
			"count":690,
			"type":"SCALAR"
		},
		{
			"bufferView":10,
			"componentType":5126,
			"count":669,
			"max":[
				17.622468948364258,
				1.0375350713729858,
				37.83513641357422
			],
			"min":[
				-17.622472763061523,
				-1.0432541370391846,
				-1.008126139640808
			],
			"type":"VEC3"
		},
		{
			"bufferView":11,
			"componentType":5126,
			"count":669,
			"type":"VEC2"
		},
		{
			"bufferView":12,
			"componentType":5126,
			"count":669,
			"type":"VEC2"
		},
		{
			"bufferView":13,
			"componentType":5126,
			"count":669,
			"type":"VEC3"
		},
		{
			"bufferView":14,
			"componentType":5123,
			"count":2556,
			"type":"SCALAR"
		}
	],
	"bufferViews":[
		{
			"buffer":0,
			"byteLength":64032,
			"byteOffset":0,
			"target":34962
		},
		{
			"buffer":0,
			"byteLength":42688,
			"byteOffset":64032,
			"target":34962
		},
		{
			"buffer":0,
			"byteLength":42688,
			"byteOffset":106720,
			"target":34962
		},
		{
			"buffer":0,
			"byteLength":64032,
			"byteOffset":149408,
			"target":34962
		},
		{
			"buffer":0,
			"byteLength":49308,
			"byteOffset":213440,
			"target":34963
		},
		{
			"buffer":0,
			"byteLength":1872,
			"byteOffset":262748,
			"target":34962
		},
		{
			"buffer":0,
			"byteLength":1248,
			"byteOffset":264620,
			"target":34962
		},
		{
			"buffer":0,
			"byteLength":1248,
			"byteOffset":265868,
			"target":34962
		},
		{
			"buffer":0,
			"byteLength":1872,
			"byteOffset":267116,
			"target":34962
		},
		{
			"buffer":0,
			"byteLength":1380,
			"byteOffset":268988,
			"target":34963
		},
		{
			"buffer":0,
			"byteLength":8028,
			"byteOffset":270368,
			"target":34962
		},
		{
			"buffer":0,
			"byteLength":5352,
			"byteOffset":278396,
			"target":34962
		},
		{
			"buffer":0,
			"byteLength":5352,
			"byteOffset":283748,
			"target":34962
		},
		{
			"buffer":0,
			"byteLength":8028,
			"byteOffset":289100,
			"target":34962
		},
		{
			"buffer":0,
			"byteLength":5112,
			"byteOffset":297128,
			"target":34963
		}
	],
	"buffers":[
		{
			"byteLength":302240,
			"uri":"data:application/octet-stream;base64,"
		}
	]
}
