{
  "accessors": [
    {
      "bufferView": 2,
      "componentType": 5126,
      "count": 82,
      "max": [
        1.7804601192474365,
        1.1487607955932617,
        2.000000238418579
      ],
      "min": [
        -2.2195403575897217,
        0.14876073598861694,
        -2.0000009536743164
      ],
      "type": "VEC3"
    },
    {
      "bufferView": 2,
      "byteOffset": 984,
      "componentType": 5126,
      "count": 82,
      "max": [
        1.0,
        1.0,
        1.0
      ],
      "min": [
        -1.0,
        -1.0,
        -1.0
      ],
      "type": "VEC3"
    },
    {
      "bufferView": 1,
      "componentType": 5126,
      "count": 82,
      "max": [
        1.028437614440918,
        1.0284377336502075
      ],
      "min": [
        -0.02843761444091797,
        -0.028437554836273193
      ],
      "type": "VEC2"
    },
    {
      "bufferView": 0,
      "componentType": 5125,
      "count": 240,
      "type": "SCALAR"
    },
    {
      "bufferView": 2,
      "byteOffset": 1968,
      "componentType": 5126,
      "count": 1812,
      "max": [
        14.34321403503418,
        11.547816276550293,
        25.438140869140625
      ],
      "min": [
        -35.192047119140625,
        -0.5,
        -26.1243896484375
      ],
      "type": "VEC3"
    },
    {
      "bufferView": 2,
      "byteOffset": 23712,
      "componentType": 5126,
      "count": 1812,
      "max": [
        0.9969238638877869,
        1.0,
        0.9326562285423279
      ],
      "min": [
        -0.9961798787117004,
        -1.0,
        -0.9594334363937378
      ],
      "type": "VEC3"
    },
    {
      "bufferView": 1,
      "byteOffset": 656,
      "componentType": 5126,
      "count": 1812,
      "max": [
        0.9052697420120239,
        0.9381734132766724
      ],
      "min": [
        0.00180693285074085,
        0.00199203216470778
      ],
      "type": "VEC2"
    },
    {
      "bufferView": 0,
      "byteOffset": 960,
      "componentType": 5125,
      "count": 8580,
      "type": "SCALAR"
    },
    {
      "bufferView": 2,
      "byteOffset": 45456,
      "componentType": 5126,
      "count": 1396,
      "max": [
        -3.079193592071533,
        28.84026527404785,
        12.180852890014648
      ],
      "min": [
        -16.627492904663086,
        11.185741424560547,
        -12.867100715637207
      ],
      "type": "VEC3"
    },
    {
      "bufferView": 2,
      "byteOffset": 62208,
      "componentType": 5126,
      "count": 1396,
      "max": [
        0.9999344348907471,
        1.0,
        0.9999968409538269
      ],
      "min": [
        -0.999958872795105,
        -1.0,
        -0.9999969005584717
      ],
      "type": "VEC3"
    },
    {
      "bufferView": 1,
      "byteOffset": 15152,
      "componentType": 5126,
      "count": 1396,
      "max": [
        0.7355784773826599,
        0.9980080127716064
      ],
      "min": [
        0.0018069257494062185,
        0.47597530484199524
      ],
      "type": "VEC2"
    },
    {
      "bufferView": 0,
      "byteOffset": 35280,
      "componentType": 5125,
      "count": 5964,
      "type": "SCALAR"
    },
    {
      "bufferView": 2,
      "byteOffset": 78960,
      "componentType": 5126,
      "count": 1449,
      "max": [
        2.9632925987243652,
        0.1884291172027588,
        4.019890308380127
      ],
      "min": [
        -36.66648864746094,
        -22.599607467651367,
        -2.96329402923584
      ],
      "type": "VEC3"
    },
    {
      "bufferView": 2,
      "byteOffset": 96348,
      "componentType": 5126,
      "count": 1449,
      "max": [
        0.9999997019767761,
        1.0,
        0.9999995827674866
      ],
      "min": [
        -0.9999303817749023,
        -0.9999119639396667,
        -0.9999995827674866
      ],
      "type": "VEC3"
    },
    {
      "bufferView": 1,
      "byteOffset": 26320,
      "componentType": 5126,
      "count": 1449,
      "max": [
        0.9525754451751709,
        0.9948790073394775
      ],
      "min": [
        0.0019013483542948961,
        0.0019920323975384235
      ],
      "type": "VEC2"
    },
    {
      "bufferView": 0,
      "byteOffset": 59136,
      "componentType": 5125,
      "count": 6240,
      "type": "SCALAR"
    },
    {
      "bufferView": 2,
      "byteOffset": 113736,
      "componentType": 5126,
      "count": 496,
      "max": [
        3.946807384490967,
        -5.8775177001953125,
        4.975189685821533
      ],
      "min": [
        -16.54654312133789,
        -13.489669799804688,
        -3.947500228881836
      ],
      "type": "VEC3"
    },
    {
      "bufferView": 2,
      "byteOffset": 119688,
      "componentType": 5126,
      "count": 496,
      "max": [
        0.9992426037788391,
        0.999994158744812,
        0.9999997615814209
      ],
      "min": [
        -0.9998259544372559,
        -0.9999856352806091,
        -0.9999997019767761
      ],
      "type": "VEC3"
    },
    {
      "bufferView": 1,
      "byteOffset": 37912,
      "componentType": 5126,
      "count": 496,
      "max": [
        0.9525753855705261,
        0.998008131980896
      ],
      "min": [
        0.10626023262739182,
        0.722224771976471
      ],
      "type": "VEC2"
    },
    {
      "bufferView": 0,
      "byteOffset": 84096,
      "componentType": 5125,
      "count": 1440,
      "type": "SCALAR"
    }
  ],
  "asset": {
    "extras": {
      "author": "Andrew.Mischenko (https://sketchfab.com/Andrew.Mischenko)",
      "license": "CC-BY-4.0 (http://creativecommons.org/licenses/by/4.0/)",
      "source": "https://sketchfab.com/3d-models/simple-sink-73bda35b6e7a499a80427fc1b049b192",
      "title": "Simple Sink"
    },
    "generator": "Sketchfab-12.65.0",
    "version": "2.0"
  },
  "bufferViews": [
    {
      "buffer": 0,
      "byteLength": 89856,
      "name": "floatBufferViews",
      "target": 34963
    },
    {
      "buffer": 0,
      "byteLength": 41880,
      "byteOffset": 89856,
      "byteStride": 8,
      "name": "floatBufferViews",
      "target": 34962
    },
    {
      "buffer": 0,
      "byteLength": 125640,
      "byteOffset": 131736,
      "byteStride": 12,
      "name": "floatBufferViews",
      "target": 34962
    }
  ],
  "buffers": [
    {
      "byteLength": 257376,
      "uri": "scene.bin"
    }
  ],
  "materials": [
    {
      "doubleSided": true,
      "name": "drain_surface",
      "pbrMetallicRoughness": {
        "baseColorFactor": [
          0.6592412686351545,
          0.6592412686351545,
          0.6592412686351545,
          1.0
        ],
        "metallicFactor": 0.6419588414634146,
        "roughnessFactor": 0.16901676829268297
      }
    },
    {
      "doubleSided": true,
      "name": "sink_inner_surface",
      "pbrMetallicRoughness": {
        "baseColorFactor": [
          0.7143055611661586,
          0.7143055611661586,
          0.7143055611661586,
          1.0
        ],
        "metallicFactor": 0.1053734756097561,
        "roughnessFactor": 0.2726753048780488
      }
    },
    {
      "doubleSided": true,
      "name": "sink_metal_surface",
      "pbrMetallicRoughness": {
        "baseColorFactor": [
          0.7494345424331753,
          0.7494345424331753,
          0.7494345424331753,
          1.0
        ],
        "roughnessFactor": 0.07755335365853655
      }
    },
    {
      "doubleSided": true,
      "name": "pipe_surface",
      "pbrMetallicRoughness": {
        "baseColorFactor": [
          0.20817454268292682,
          0.20817454268292682,
          0.20817454268292682,
          1.0
        ],
        "metallicFactor": 0.0,
        "roughnessFactor": 0.29706554878048785
      }
    },
    {
      "doubleSided": true,
      "name": "sink_pipe_second_surface",
      "pbrMetallicRoughness": {
        "baseColorFactor": [
          0.25390625,
          0.25390625,
          0.25390625,
          1.0
        ],
        "metallicFactor": 0.0,
        "roughnessFactor": 0.6385289634146342
      }
    }
  ],
  "meshes": [
    {
      "name": "polySurface2_drain_surface_0",
      "primitives": [
        {
          "attributes": {
            "NORMAL": 1,
            "POSITION": 0,
            "TEXCOORD_0": 2
          },
          "indices": 3,
          "material": 0,
          "mode": 4
        }
      ]
    },
    {
      "name": "polySurface2_sink_inner_surface_0",
      "primitives": [
        {
          "attributes": {
            "NORMAL": 5,
            "POSITION": 4,
            "TEXCOORD_0": 6
          },
          "indices": 7,
          "material": 1,
          "mode": 4
        }
      ]
    },
    {
      "name": "polySurface2_sink_metal_surface_0",
      "primitives": [
        {
          "attributes": {
            "NORMAL": 9,
            "POSITION": 8,
            "TEXCOORD_0": 10
          },
          "indices": 11,
          "material": 2,
          "mode": 4
        }
      ]
    },
    {
      "name": "polySurface2_pipe_surface_0",
      "primitives": [
        {
          "attributes": {
            "NORMAL": 13,
            "POSITION": 12,
            "TEXCOORD_0": 14
          },
          "indices": 15,
          "material": 3,
          "mode": 4
        }
      ]
    },
    {
      "name": "polySurface2_sink_pipe_second_surface_0",
      "primitives": [
        {
          "attributes": {
            "NORMAL": 17,
            "POSITION": 16,
            "TEXCOORD_0": 18
          },
          "indices": 19,
          "material": 4,
          "mode": 4
        }
      ]
    }
  ],
  "nodes": [
    {
      "children": [
        1
      ],
      "matrix": [
        1.0,
        0.0,
        0.0,
        0.0,
        0.0,
        2.220446049250313e-16,
        -1.0,
        0.0,
        0.0,
        1.0,
        2.220446049250313e-16,
        0.0,
        0.0,
        0.0,
        0.0,
        1.0
      ],
      "name": "Sketchfab_model"
    },
    {
      "children": [
        2
      ],
      "matrix": [
        1.0,
        0.0,
        0.0,
        0.0,
        0.0,
        0.0,
        1.0,
        0.0,
        0.0,
        -1.0,
        0.0,
        0.0,
        0.0,
        0.0,
        0.0,
        1.0
      ],
      "name": "sink_with_pipes.fbx"
    },
    {
      "children": [
        3
      ],
      "name": "RootNode"
    },
    {
      "children": [
        4,
        5,
        6,
        7,
        8
      ],
      "name": "polySurface2"
    },
    {
      "mesh": 0,
      "name": "polySurface2_drain_surface_0"
    },
    {
      "mesh": 1,
      "name": "polySurface2_sink_inner_surface_0"
    },
    {
      "mesh": 2,
      "name": "polySurface2_sink_metal_surface_0"
    },
    {
      "mesh": 3,
      "name": "polySurface2_pipe_surface_0"
    },
    {
      "mesh": 4,
      "name": "polySurface2_sink_pipe_second_surface_0"
    }
  ],
  "scene": 0,
  "scenes": [
    {
      "name": "Sketchfab_Scene",
      "nodes": [
        0
      ]
    }
  ]
}
