{
	"asset":{
		"generator":"Khronos glTF Blender I/O v3.5.30",
		"version":"2.0"
	},
	"scene":0,
	"scenes":[
		{
			"name":"Scene",
			"nodes":[
				8
			]
		}
	],
	"nodes":[
		{
			"mesh":0,
			"name":"polySurface2_drain_surface_0"
		},
		{
			"mesh":1,
			"name":"polySurface2_pipe_surface_0"
		},
		{
			"mesh":2,
			"name":"polySurface2_sink_inner_surface_0"
		},
		{
			"mesh":3,
			"name":"polySurface2_sink_metal_surface_0"
		},
		{
			"mesh":4,
			"name":"polySurface2_sink_pipe_second_surface_0"
		},
		{
			"children":[
				0,
				1,
				2,
				3,
				4
			],
			"name":"polySurface2"
		},
		{
			"children":[
				5
			],
			"name":"RootNode"
		},
		{
			"children":[
				6
			],
			"name":"sink_with_pipes.fbx",
			"rotation":[
				0.70710688829422,
				0,
				0,
				0.7071066498756409
			]
		},
		{
			"children":[
				7
			],
			"name":"Sketchfab_model",
			"rotation":[
				-0.70710688829422,
				0,
				0,
				0.7071066498756409
			],
			"scale":[
				0.05000000074505806,
				0.05000000819563866,
				0.05000000819563866
			]
		}
	],
	"materials":[
		{
			"doubleSided":true,
			"name":"drain_surface",
			"pbrMetallicRoughness":{
				"baseColorFactor":[
					0.659241259098053,
					0.659241259098053,
					0.659241259098053,
					1
				],
				"metallicFactor":0.6419588327407837,
				"roughnessFactor":0.1690167635679245
			}
		},
		{
			"doubleSided":true,
			"name":"pipe_surface",
			"pbrMetallicRoughness":{
				"baseColorFactor":[
					0.20817454159259796,
					0.20817454159259796,
					0.20817454159259796,
					1
				],
				"metallicFactor":0,
				"roughnessFactor":0.2970655560493469
			}
		},
		{
			"doubleSided":true,
			"name":"sink_inner_surface",
			"pbrMetallicRoughness":{
				"baseColorFactor":[
					0.714305579662323,
					0.714305579662323,
					0.714305579662323,
					1
				],
				"metallicFactor":0.10537347197532654,
				"roughnessFactor":0.2726753056049347
			}
		},
		{
			"doubleSided":true,
			"name":"sink_metal_surface",
			"pbrMetallicRoughness":{
				"baseColorFactor":[
					0.7494345307350159,
					0.7494345307350159,
					0.7494345307350159,
					1
				],
				"roughnessFactor":0.07755335420370102
			}
		},
		{
			"doubleSided":true,
			"name":"sink_pipe_second_surface",
			"pbrMetallicRoughness":{
				"baseColorFactor":[
					0.25390625,
					0.25390625,
					0.25390625,
					1
				],
				"metallicFactor":0,
				"roughnessFactor":0.6385289430618286
			}
		}
	],
	"meshes":[
		{
			"name":"polySurface2_drain_surface_0",
			"primitives":[
				{
					"attributes":{
						"POSITION":0,
						"TEXCOORD_0":1,
						"NORMAL":2
					},
					"indices":3,
					"material":0
				}
			]
		},
		{
			"name":"polySurface2_pipe_surface_0",
			"primitives":[
				{
					"attributes":{
						"POSITION":4,
						"TEXCOORD_0":5,
						"NORMAL":6
					},
					"indices":7,
					"material":1
				}
			]
		},
		{
			"name":"polySurface2_sink_inner_surface_0",
			"primitives":[
				{
					"attributes":{
						"POSITION":8,
						"TEXCOORD_0":9,
						"NORMAL":10
					},
					"indices":11,
					"material":2
				}
			]
		},
		{
			"name":"polySurface2_sink_metal_surface_0",
			"primitives":[
				{
					"attributes":{
						"POSITION":12,
						"TEXCOORD_0":13,
						"NORMAL":14
					},
					"indices":15,
					"material":3
				}
			]
		},
		{
			"name":"polySurface2_sink_pipe_second_surface_0",
			"primitives":[
				{
					"attributes":{
						"POSITION":16,
						"TEXCOORD_0":17,
						"NORMAL":18
					},
					"indices":19,
					"material":4
				}
			]
		}
	],
	"accessors":[
		{
			"bufferView":0,
			"componentType":5126,
			"count":82,
			"max":[
				1.7804601192474365,
				1.1487607955932617,
				2.000000238418579
			],
			"min":[
				-2.2195403575897217,
				0.14876073598861694,
				-2.0000009536743164
			],
			"type":"VEC3"
		},
		{
			"bufferView":1,
			"componentType":5126,
			"count":82,
			"type":"VEC2"
		},
		{
			"bufferView":2,
			"componentType":5126,
			"count":82,
			"type":"VEC3"
		},
		{
			"bufferView":3,
			"componentType":5123,
			"count":240,
			"type":"SCALAR"
		},
		{
			"bufferView":4,
			"componentType":5126,
			"count":1449,
			"max":[
				2.9632925987243652,
				0.1884291172027588,
				4.019890308380127
			],
			"min":[
				-36.66648864746094,
				-22.599607467651367,
				-2.96329402923584
			],
			"type":"VEC3"
		},
		{
			"bufferView":5,
			"componentType":5126,
			"count":1449,
			"type":"VEC2"
		},
		{
			"bufferView":6,
			"componentType":5126,
			"count":1449,
			"type":"VEC3"
		},
		{
			"bufferView":7,
			"componentType":5123,
			"count":6240,
			"type":"SCALAR"
		},
		{
			"bufferView":8,
			"componentType":5126,
			"count":1812,
			"max":[
				14.34321403503418,
				11.547816276550293,
				25.438140869140625
			],
			"min":[
				-35.192047119140625,
				-0.5,
				-26.1243896484375
			],
			"type":"VEC3"
		},
		{
			"bufferView":9,
			"componentType":5126,
			"count":1812,
			"type":"VEC2"
		},
		{
			"bufferView":10,
			"componentType":5126,
			"count":1812,
			"type":"VEC3"
		},
		{
			"bufferView":11,
			"componentType":5123,
			"count":8580,
			"type":"SCALAR"
		},
		{
			"bufferView":12,
			"componentType":5126,
			"count":1396,
			"max":[
				-3.079193592071533,
				28.84026527404785,
				12.180852890014648
			],
			"min":[
				-16.627492904663086,
				11.185741424560547,
				-12.867100715637207
			],
			"type":"VEC3"
		},
		{
			"bufferView":13,
			"componentType":5126,
			"count":1396,
			"type":"VEC2"
		},
		{
			"bufferView":14,
			"componentType":5126,
			"count":1396,
			"type":"VEC3"
		},
		{
			"bufferView":15,
			"componentType":5123,
			"count":5964,
			"type":"SCALAR"
		},
		{
			"bufferView":16,
			"componentType":5126,
			"count":496,
			"max":[
				3.946807384490967,
				-5.8775177001953125,
				4.975189685821533
			],
			"min":[
				-16.54654312133789,
				-13.489669799804688,
				-3.947500228881836
			],
			"type":"VEC3"
		},
		{
			"bufferView":17,
			"componentType":5126,
			"count":496,
			"type":"VEC2"
		},
		{
			"bufferView":18,
			"componentType":5126,
			"count":496,
			"type":"VEC3"
		},
		{
			"bufferView":19,
			"componentType":5123,
			"count":1440,
			"type":"SCALAR"
		}
	],
	"bufferViews":[
		{
			"buffer":0,
			"byteLength":984,
			"byteOffset":0,
			"target":34962
		},
		{
			"buffer":0,
			"byteLength":656,
			"byteOffset":984,
			"target":34962
		},
		{
			"buffer":0,
			"byteLength":984,
			"byteOffset":1640,
			"target":34962
		},
		{
			"buffer":0,
			"byteLength":480,
			"byteOffset":2624,
			"target":34963
		},
		{
			"buffer":0,
			"byteLength":17388,
			"byteOffset":3104,
			"target":34962
		},
		{
			"buffer":0,
			"byteLength":11592,
			"byteOffset":20492,
			"target":34962
		},
		{
			"buffer":0,
			"byteLength":17388,
			"byteOffset":32084,
			"target":34962
		},
		{
			"buffer":0,
			"byteLength":12480,
			"byteOffset":49472,
			"target":34963
		},
		{
			"buffer":0,
			"byteLength":21744,
			"byteOffset":61952,
			"target":34962
		},
		{
			"buffer":0,
			"byteLength":14496,
			"byteOffset":83696,
			"target":34962
		},
		{
			"buffer":0,
			"byteLength":21744,
			"byteOffset":98192,
			"target":34962
		},
		{
			"buffer":0,
			"byteLength":17160,
			"byteOffset":119936,
			"target":34963
		},
		{
			"buffer":0,
			"byteLength":16752,
			"byteOffset":137096,
			"target":34962
		},
		{
			"buffer":0,
			"byteLength":11168,
			"byteOffset":153848,
			"target":34962
		},
		{
			"buffer":0,
			"byteLength":16752,
			"byteOffset":165016,
			"target":34962
		},
		{
			"buffer":0,
			"byteLength":11928,
			"byteOffset":181768,
			"target":34963
		},
		{
			"buffer":0,
			"byteLength":5952,
			"byteOffset":193696,
			"target":34962
		},
		{
			"buffer":0,
			"byteLength":3968,
			"byteOffset":199648,
			"target":34962
		},
		{
			"buffer":0,
			"byteLength":5952,
			"byteOffset":203616,
			"target":34962
		},
		{
			"buffer":0,
			"byteLength":2880,
			"byteOffset":209568,
			"target":34963
		}
	],
	"buffers":[
		{
			"byteLength":212448,
			"uri":"data:application/octet-stream;base64,"
		}
	]
}
