{
	"asset":{
		"generator":"Khronos glTF Blender I/O v3.5.30",
		"version":"2.0"
	},
	"scene":0,
	"scenes":[
		{
			"name":"Scene",
			"nodes":[
				12
			]
		}
	],
	"nodes":[
		{
			"mesh":0,
			"name":"CoverPlate.001_lightswitch_0"
		},
		{
			"children":[
				0
			],
			"name":"CoverPlate.001",
			"rotation":[
				-0.70710688829422,
				0,
				0,
				0.7071066498756409
			],
			"scale":[
				100.00000762939453,
				99.99999237060547,
				100
			]
		},
		{
			"mesh":1,
			"name":"ScrewBottom.001_lightswitch_0"
		},
		{
			"children":[
				2
			],
			"name":"ScrewBottom.001",
			"rotation":[
				-0.9940263032913208,
				0,
				0,
				0.10914088040590286
			],
			"scale":[
				100.00000762939453,
				100,
				100
			],
			"translation":[
				0.21015287935733795,
				-4.688732147216797,
				0.010166802443563938
			]
		},
		{
			"mesh":2,
			"name":"ScrewTop.001_lightswitch_0"
		},
		{
			"children":[
				4
			],
			"name":"ScrewTop.001",
			"rotation":[
				-0.5123282670974731,
				0,
				0,
				0.8587896823883057
			],
			"scale":[
				100.00000762939453,
				99.99998474121094,
				99.99999237060547
			],
			"translation":[
				0.21015292406082153,
				4.688732624053955,
				0.010166803374886513
			]
		},
		{
			"mesh":3,
			"name":"Switch.001_lightswitch_0"
		},
		{
			"children":[
				6
			],
			"name":"Switch.001",
			"rotation":[
				-0.70710688829422,
				-1.789133057172876e-05,
				1.789091584214475e-05,
				0.7071066498756409
			],
			"scale":[
				100.00000762939453,
				99.99999237060547,
				100
			],
			"translation":[
				-0.2500000298023224,
				0.09999998658895493,
				0
			]
		},
		{
			"mesh":4,
			"name":"SwitchHolder.001_lightswitch_0"
		},
		{
			"children":[
				8
			],
			"name":"SwitchHolder.001",
			"rotation":[
				-0.70710688829422,
				0,
				0,
				0.7071066498756409
			],
			"scale":[
				100.00000762939453,
				99.99999237060547,
				100
			]
		},
		{
			"children":[
				1,
				3,
				5,
				7,
				9
			],
			"name":"RootNode"
		},
		{
			"children":[
				10
			],
			"name":"lightswitch.fbx",
			"rotation":[
				0.70710688829422,
				0,
				0,
				0.7071066498756409
			],
			"scale":[
				0.009999999776482582,
				0.010000000707805157,
				0.009999999776482582
			]
		},
		{
			"children":[
				11
			],
			"name":"Sketchfab_model",
			"rotation":[
				-0.004484341014176607,
				0.7070925235748291,
				0.7070925831794739,
				0.0044843414798378944
			],
			"scale":[
				2.000000238418579,
				2,
				2.000000238418579
			]
		}
	],
	"materials":[
		{
			"name":"lightswitch",
			"pbrMetallicRoughness":{}
		}
	],
	"meshes":[
		{
			"name":"CoverPlate.001_lightswitch_0",
			"primitives":[
				{
					"attributes":{
						"POSITION":0,
						"TEXCOORD_0":1,
						"TEXCOORD_1":2,
						"NORMAL":3
					},
					"indices":4,
					"material":0
				}
			]
		},
		{
			"name":"ScrewBottom.001_lightswitch_0",
			"primitives":[
				{
					"attributes":{
						"POSITION":5,
						"TEXCOORD_0":6,
						"TEXCOORD_1":7,
						"NORMAL":8
					},
					"indices":9,
					"material":0
				}
			]
		},
		{
			"name":"ScrewTop.001_lightswitch_0",
			"primitives":[
				{
					"attributes":{
						"POSITION":10,
						"TEXCOORD_0":11,
						"TEXCOORD_1":12,
						"NORMAL":13
					},
					"indices":14,
					"material":0
				}
			]
		},
		{
			"name":"Switch.001_lightswitch_0",
			"primitives":[
				{
					"attributes":{
						"POSITION":15,
						"TEXCOORD_0":16,
						"TEXCOORD_1":17,
						"NORMAL":18
					},
					"indices":19,
					"material":0
				}
			]
		},
		{
			"name":"SwitchHolder.001_lightswitch_0",
			"primitives":[
				{
					"attributes":{
						"POSITION":20,
						"TEXCOORD_0":21,
						"TEXCOORD_1":22,
						"NORMAL":23
					},
					"indices":24,
					"material":0
				}
			]
		}
	],
	"accessors":[
		{
			"bufferView":0,
			"componentType":5126,
			"count":1758,
			"max":[
				0.002500000409781933,
				0.03500000387430191,
				0.05700000748038292
			],
			"min":[
				-0.0025000006426125765,
				-0.03500000387430191,
				-0.05700000748038292
			],
			"type":"VEC3"
		},
		{
			"bufferView":1,
			"componentType":5126,
			"count":1758,
			"type":"VEC2"
		},
		{
			"bufferView":2,
			"componentType":5126,
			"count":1758,
			"type":"VEC2"
		},
		{
			"bufferView":3,
			"componentType":5126,
			"count":1758,
			"type":"VEC3"
		},
		{
			"bufferView":4,
			"componentType":5123,
			"count":8256,
			"type":"SCALAR"
		},
		{
			"bufferView":5,
			"componentType":5126,
			"count":260,
			"max":[
				0.0009493253892287612,
				0.0038926287088543177,
				0.003892399836331606
			],
			"min":[
				-0.0006015321705490351,
				-0.0038926282431930304,
				-0.0038924808613955975
			],
			"type":"VEC3"
		},
		{
			"bufferView":6,
			"componentType":5126,
			"count":260,
			"type":"VEC2"
		},
		{
			"bufferView":7,
			"componentType":5126,
			"count":260,
			"type":"VEC2"
		},
		{
			"bufferView":8,
			"componentType":5126,
			"count":260,
			"type":"VEC3"
		},
		{
			"bufferView":9,
			"componentType":5123,
			"count":702,
			"type":"SCALAR"
		},
		{
			"bufferView":10,
			"componentType":5126,
			"count":260,
			"max":[
				0.0009493252728134394,
				0.0038926287088543177,
				0.003892473876476288
			],
			"min":[
				-0.0006015322869643569,
				-0.0038926282431930304,
				-0.0038924068212509155
			],
			"type":"VEC3"
		},
		{
			"bufferView":11,
			"componentType":5126,
			"count":260,
			"type":"VEC2"
		},
		{
			"bufferView":12,
			"componentType":5126,
			"count":260,
			"type":"VEC2"
		},
		{
			"bufferView":13,
			"componentType":5126,
			"count":260,
			"type":"VEC3"
		},
		{
			"bufferView":14,
			"componentType":5123,
			"count":702,
			"type":"SCALAR"
		},
		{
			"bufferView":15,
			"componentType":5126,
			"count":109,
			"max":[
				0.010532902553677559,
				0.013707548379898071,
				0.029432307928800583
			],
			"min":[
				-0.004729951731860638,
				-0.013707548379898071,
				-0.03143046051263809
			],
			"type":"VEC3"
		},
		{
			"bufferView":16,
			"componentType":5126,
			"count":109,
			"type":"VEC2"
		},
		{
			"bufferView":17,
			"componentType":5126,
			"count":109,
			"type":"VEC2"
		},
		{
			"bufferView":18,
			"componentType":5126,
			"count":109,
			"type":"VEC3"
		},
		{
			"bufferView":19,
			"componentType":5123,
			"count":480,
			"type":"SCALAR"
		},
		{
			"bufferView":20,
			"componentType":5126,
			"count":354,
			"max":[
				0.003504423424601555,
				0.016479820013046265,
				0.03320273384451866
			],
			"min":[
				-0.0024999999441206455,
				-0.016479820013046265,
				-0.03320273384451866
			],
			"type":"VEC3"
		},
		{
			"bufferView":21,
			"componentType":5126,
			"count":354,
			"type":"VEC2"
		},
		{
			"bufferView":22,
			"componentType":5126,
			"count":354,
			"type":"VEC2"
		},
		{
			"bufferView":23,
			"componentType":5126,
			"count":354,
			"type":"VEC3"
		},
		{
			"bufferView":24,
			"componentType":5123,
			"count":864,
			"type":"SCALAR"
		}
	],
	"bufferViews":[
		{
			"buffer":0,
			"byteLength":21096,
			"byteOffset":0,
			"target":34962
		},
		{
			"buffer":0,
			"byteLength":14064,
			"byteOffset":21096,
			"target":34962
		},
		{
			"buffer":0,
			"byteLength":14064,
			"byteOffset":35160,
			"target":34962
		},
		{
			"buffer":0,
			"byteLength":21096,
			"byteOffset":49224,
			"target":34962
		},
		{
			"buffer":0,
			"byteLength":16512,
			"byteOffset":70320,
			"target":34963
		},
		{
			"buffer":0,
			"byteLength":3120,
			"byteOffset":86832,
			"target":34962
		},
		{
			"buffer":0,
			"byteLength":2080,
			"byteOffset":89952,
			"target":34962
		},
		{
			"buffer":0,
			"byteLength":2080,
			"byteOffset":92032,
			"target":34962
		},
		{
			"buffer":0,
			"byteLength":3120,
			"byteOffset":94112,
			"target":34962
		},
		{
			"buffer":0,
			"byteLength":1404,
			"byteOffset":97232,
			"target":34963
		},
		{
			"buffer":0,
			"byteLength":3120,
			"byteOffset":98636,
			"target":34962
		},
		{
			"buffer":0,
			"byteLength":2080,
			"byteOffset":101756,
			"target":34962
		},
		{
			"buffer":0,
			"byteLength":2080,
			"byteOffset":103836,
			"target":34962
		},
		{
			"buffer":0,
			"byteLength":3120,
			"byteOffset":105916,
			"target":34962
		},
		{
			"buffer":0,
			"byteLength":1404,
			"byteOffset":109036,
			"target":34963
		},
		{
			"buffer":0,
			"byteLength":1308,
			"byteOffset":110440,
			"target":34962
		},
		{
			"buffer":0,
			"byteLength":872,
			"byteOffset":111748,
			"target":34962
		},
		{
			"buffer":0,
			"byteLength":872,
			"byteOffset":112620,
			"target":34962
		},
		{
			"buffer":0,
			"byteLength":1308,
			"byteOffset":113492,
			"target":34962
		},
		{
			"buffer":0,
			"byteLength":960,
			"byteOffset":114800,
			"target":34963
		},
		{
			"buffer":0,
			"byteLength":4248,
			"byteOffset":115760,
			"target":34962
		},
		{
			"buffer":0,
			"byteLength":2832,
			"byteOffset":120008,
			"target":34962
		},
		{
			"buffer":0,
			"byteLength":2832,
			"byteOffset":122840,
			"target":34962
		},
		{
			"buffer":0,
			"byteLength":4248,
			"byteOffset":125672,
			"target":34962
		},
		{
			"buffer":0,
			"byteLength":1728,
			"byteOffset":129920,
			"target":34963
		}
	],
	"buffers":[
		{
			"byteLength":131648,
			"uri":"data:application/octet-stream;base64,"
		}
	]
}
