{
	"asset":{
		"generator":"Khronos glTF Blender I/O v3.5.30",
		"version":"2.0"
	},
	"scene":0,
	"scenes":[
		{
			"name":"Scene",
			"nodes":[
				4
			]
		}
	],
	"nodes":[
		{
			"mesh":0,
			"name":"mesh_Mat_0"
		},
		{
			"children":[
				0
			],
			"name":"mesh",
			"rotation":[
				0.06640759855508804,
				-0.029962701722979546,
				0.008293332532048225,
				0.9973081350326538
			],
			"translation":[
				17.12139320373535,
				6.739512920379639,
				0.754114031791687
			]
		},
		{
			"children":[
				1
			],
			"name":"RootNode"
		},
		{
			"children":[
				2
			],
			"name":"99d593040eb94455ba3770cd0e86dbd4.fbx",
			"rotation":[
				0.70710688829422,
				0,
				0,
				0.7071066498756409
			]
		},
		{
			"children":[
				3
			],
			"name":"Sketchfab_model",
			"rotation":[
				-0.70710688829422,
				0,
				0,
				0.7071066498756409
			],
			"scale":[
				0.10000000149011612,
				0.10000001639127731,
				0.10000001639127731
			]
		}
	],
	"materials":[
		{
			"name":"material",
			"pbrMetallicRoughness":{
				"metallicFactor":0
			}
		}
	],
	"meshes":[
		{
			"name":"mesh_Mat_0",
			"primitives":[
				{
					"attributes":{
						"POSITION":0,
						"TEXCOORD_0":1,
						"TEXCOORD_1":2,
						"NORMAL":3
					},
					"indices":4,
					"material":0
				}
			]
		}
	],
	"accessors":[
		{
			"bufferView":0,
			"componentType":5126,
			"count":3370,
			"max":[
				9.953472137451172,
				12.673027038574219,
				45.94715118408203
			],
			"min":[
				-44.81474304199219,
				-12.046910285949707,
				-28.020111083984375
			],
			"type":"VEC3"
		},
		{
			"bufferView":1,
			"componentType":5126,
			"count":3370,
			"type":"VEC2"
		},
		{
			"bufferView":2,
			"componentType":5126,
			"count":3370,
			"type":"VEC2"
		},
		{
			"bufferView":3,
			"componentType":5126,
			"count":3370,
			"type":"VEC3"
		},
		{
			"bufferView":4,
			"componentType":5123,
			"count":14280,
			"type":"SCALAR"
		}
	],
	"bufferViews":[
		{
			"buffer":0,
			"byteLength":40440,
			"byteOffset":0,
			"target":34962
		},
		{
			"buffer":0,
			"byteLength":26960,
			"byteOffset":40440,
			"target":34962
		},
		{
			"buffer":0,
			"byteLength":26960,
			"byteOffset":67400,
			"target":34962
		},
		{
			"buffer":0,
			"byteLength":40440,
			"byteOffset":94360,
			"target":34962
		},
		{
			"buffer":0,
			"byteLength":28560,
			"byteOffset":134800,
			"target":34963
		}
	],
	"buffers":[
		{
			"byteLength":163360,
			"uri":"data:application/octet-stream;base64,"
		}
	]
}
