{
	"asset":{
		"generator":"Khronos glTF Blender I/O v3.5.30",
		"version":"2.0"
	},
	"scene":0,
	"scenes":[
		{
			"name":"Scene",
			"nodes":[
				0
			]
		}
	],
	"nodes":[
		{
			"mesh":0,
			"name":"Object_3",
			"rotation":[
				0.7110241651535034,
				0,
				0,
				0.7031676173210144
			],
			"translation":[
				-4,
				0.5,
				-0.3800000846385956
			]
		}
	],
	"materials":[
		{
			"doubleSided":true,
			"name":"ltgrey",
			"pbrMetallicRoughness":{
				"metallicFactor":0,
				"roughnessFactor":0.6000000238418579
			}
		},
		{
			"doubleSided":true,
			"name":"Material.001",
			"pbrMetallicRoughness":{
				"baseColorFactor":[
					0.800000011920929,
					0.800000011920929,
					0.800000011920929,
					1
				],
				"metallicFactor":0,
				"roughnessFactor":0.5
			}
		}
	],
	"meshes":[
		{
			"name":"Object_1",
			"primitives":[
				{
					"attributes":{
						"POSITION":0,
						"TEXCOORD_0":1,
						"NORMAL":2
					},
					"indices":3,
					"material":0
				},
				{
					"attributes":{
						"POSITION":4,
						"TEXCOORD_0":5,
						"NORMAL":6
					},
					"indices":7,
					"material":1
				}
			]
		}
	],
	"accessors":[
		{
			"bufferView":0,
			"componentType":5126,
			"count":265,
			"max":[
				5.5225701332092285,
				0.5388000011444092,
				0.01496999990195036
			],
			"min":[
				5.256710052490234,
				0.46584001183509827,
				-1.1850999593734741
			],
			"type":"VEC3"
		},
		{
			"bufferView":1,
			"componentType":5126,
			"count":265,
			"type":"VEC2"
		},
		{
			"bufferView":2,
			"componentType":5126,
			"count":265,
			"type":"VEC3"
		},
		{
			"bufferView":3,
			"componentType":5123,
			"count":576,
			"type":"SCALAR"
		},
		{
			"bufferView":4,
			"componentType":5126,
			"count":24,
			"max":[
				6,
				0.5021917819976807,
				1.996764898300171
			],
			"min":[
				1.999999761581421,
				0.2466505467891693,
				-3.0051467418670654
			],
			"type":"VEC3"
		},
		{
			"bufferView":5,
			"componentType":5126,
			"count":24,
			"type":"VEC2"
		},
		{
			"bufferView":6,
			"componentType":5126,
			"count":24,
			"type":"VEC3"
		},
		{
			"bufferView":7,
			"componentType":5123,
			"count":36,
			"type":"SCALAR"
		}
	],
	"bufferViews":[
		{
			"buffer":0,
			"byteLength":3180,
			"byteOffset":0,
			"target":34962
		},
		{
			"buffer":0,
			"byteLength":2120,
			"byteOffset":3180,
			"target":34962
		},
		{
			"buffer":0,
			"byteLength":3180,
			"byteOffset":5300,
			"target":34962
		},
		{
			"buffer":0,
			"byteLength":1152,
			"byteOffset":8480,
			"target":34963
		},
		{
			"buffer":0,
			"byteLength":288,
			"byteOffset":9632,
			"target":34962
		},
		{
			"buffer":0,
			"byteLength":192,
			"byteOffset":9920,
			"target":34962
		},
		{
			"buffer":0,
			"byteLength":288,
			"byteOffset":10112,
			"target":34962
		},
		{
			"buffer":0,
			"byteLength":72,
			"byteOffset":10400,
			"target":34963
		}
	],
	"buffers":[
		{
			"byteLength":10472,
			"uri":"data:application/octet-stream;base64,"
		}
	]
}
