{
	"asset":{
		"generator":"Khronos glTF Blender I/O v3.5.30",
		"version":"2.0"
	},
	"scene":0,
	"scenes":[
		{
			"name":"Scene",
			"nodes":[
				0,
				1
			]
		}
	],
	"nodes":[
		{
			"mesh":0,
			"name":"ToiletSeatCover_Toilet_0",
			"rotation":[
				-0.5032415986061096,
				-0.49637895822525024,
				-0.4862157106399536,
				0.5137607455253601
			],
			"scale":[
				0.03999999910593033,
				0.040000006556510925,
				0.040000006556510925
			],
			"translation":[
				-0.9454544186592102,
				1.4923981428146362,
				0.03776327148079872
			]
		},
		{
			"mesh":1,
			"name":"ToiletSeatMount_Toilet_0",
			"rotation":[
				0,
				-0.6948365569114685,
				0,
				0.7191677093505859
			],
			"scale":[
				0.03999999910593033,
				0.04000000283122063,
				0.040000006556510925
			],
			"translation":[
				-0.9454544186592102,
				1.4923981428146362,
				0.03776329755783081
			]
		}
	],
	"materials":[
		{
			"name":"Toilet",
			"pbrMetallicRoughness":{}
		}
	],
	"meshes":[
		{
			"name":"ToiletSeatCover_Toilet_0",
			"primitives":[
				{
					"attributes":{
						"POSITION":0,
						"TEXCOORD_0":1,
						"TEXCOORD_1":2,
						"NORMAL":3
					},
					"indices":4,
					"material":0
				}
			]
		},
		{
			"name":"ToiletSeatMount_Toilet_0",
			"primitives":[
				{
					"attributes":{
						"POSITION":5,
						"TEXCOORD_0":6,
						"TEXCOORD_1":7,
						"NORMAL":8
					},
					"indices":9,
					"material":0
				}
			]
		}
	],
	"accessors":[
		{
			"bufferView":0,
			"componentType":5126,
			"count":606,
			"max":[
				17.19564437866211,
				2.6378846168518066,
				37.31634521484375
			],
			"min":[
				-17.195650100708008,
				-0.550701916217804,
				-1.7020344734191895
			],
			"type":"VEC3"
		},
		{
			"bufferView":1,
			"componentType":5126,
			"count":606,
			"type":"VEC2"
		},
		{
			"bufferView":2,
			"componentType":5126,
			"count":606,
			"type":"VEC2"
		},
		{
			"bufferView":3,
			"componentType":5126,
			"count":606,
			"type":"VEC3"
		},
		{
			"bufferView":4,
			"componentType":5123,
			"count":2268,
			"type":"SCALAR"
		},
		{
			"bufferView":5,
			"componentType":5126,
			"count":468,
			"max":[
				11.106472969055176,
				0.5506515502929688,
				0.5506545305252075
			],
			"min":[
				-11.106472969055176,
				-1.0995261669158936,
				-3.59177303314209
			],
			"type":"VEC3"
		},
		{
			"bufferView":6,
			"componentType":5126,
			"count":468,
			"type":"VEC2"
		},
		{
			"bufferView":7,
			"componentType":5126,
			"count":468,
			"type":"VEC2"
		},
		{
			"bufferView":8,
			"componentType":5126,
			"count":468,
			"type":"VEC3"
		},
		{
			"bufferView":9,
			"componentType":5123,
			"count":1308,
			"type":"SCALAR"
		}
	],
	"bufferViews":[
		{
			"buffer":0,
			"byteLength":7272,
			"byteOffset":0,
			"target":34962
		},
		{
			"buffer":0,
			"byteLength":4848,
			"byteOffset":7272,
			"target":34962
		},
		{
			"buffer":0,
			"byteLength":4848,
			"byteOffset":12120,
			"target":34962
		},
		{
			"buffer":0,
			"byteLength":7272,
			"byteOffset":16968,
			"target":34962
		},
		{
			"buffer":0,
			"byteLength":4536,
			"byteOffset":24240,
			"target":34963
		},
		{
			"buffer":0,
			"byteLength":5616,
			"byteOffset":28776,
			"target":34962
		},
		{
			"buffer":0,
			"byteLength":3744,
			"byteOffset":34392,
			"target":34962
		},
		{
			"buffer":0,
			"byteLength":3744,
			"byteOffset":38136,
			"target":34962
		},
		{
			"buffer":0,
			"byteLength":5616,
			"byteOffset":41880,
			"target":34962
		},
		{
			"buffer":0,
			"byteLength":2616,
			"byteOffset":47496,
			"target":34963
		}
	],
	"buffers":[
		{
			"byteLength":50112,
			"uri":"data:application/octet-stream;base64,"
		}
	]
}
